<svg width="45" height="40" viewBox="0 0 45 40" fill="none" xmlns="http://www.w3.org/2000/svg">
<path d="M1.5 22C2.32843 22 3 21.3284 3 20.5C3 19.6716 2.32843 19 1.5 19C0.671573 19 0 19.6716 0 20.5C0 21.3284 0.671573 22 1.5 22Z" fill="white"/>
<path d="M16.5 22C17.3284 22 18 21.3284 18 20.5C18 19.6716 17.3284 19 16.5 19C15.6716 19 15 19.6716 15 20.5C15 21.3284 15.6716 22 16.5 22Z" fill="white"/>
<path d="M31.5 22C32.3284 22 33 21.3284 33 20.5C33 19.6716 32.3284 19 31.5 19C30.6716 19 30 19.6716 30 20.5C30 21.3284 30.6716 22 31.5 22Z" fill="white"/>
</svg>
